2.5Hzlow3min_grf.mot
version=1
nRows=27
nColumns 19
inDegrees=yes
endheader
time	1_ground_force_vx	1_ground_force_vy	1_ground_force_vz	1_ground_force_px	1_ground_force_py	1_ground_force_pz	1_ground_torque_x	1_ground_torque_y	1_ground_torque_z	2_ground_force_vx	2_ground_force_vy	2_ground_force_vz	2_ground_force_px	2_ground_force_py	2_ground_force_pz	2_ground_torque_x	2_ground_torque_y	2_ground_torque_z
            0.005000	            1.097946	          200.554749	          -22.254804	           -0.258215	            0.006216	           -0.404678	            0.000775	            0.141512	           -0.015703	           -0.405475	          140.619697	           20.117900	           -0.240033	            0.005553	           -0.679845	           -0.000444	            0.154098	            0.022046
            0.005500	            1.008105	          197.307786	          -21.764075	           -0.258150	            0.006215	           -0.404462	            0.000864	            0.169061	           -0.018648	           -0.307225	          139.331827	           19.878621	           -0.239277	            0.005557	           -0.680174	           -0.000303	            0.137339	            0.019594
            0.006000	            1.100904	          193.701704	          -21.596338	           -0.258084	            0.006217	           -0.404973	            0.001166	            0.205070	           -0.022864	           -0.298709	          136.938910	           19.588510	           -0.239553	            0.005556	           -0.679960	           -0.000334	            0.152893	            0.021871
            0.006500	            0.827137	          190.996289	          -21.286258	           -0.258113	            0.006216	           -0.404865	            0.000798	            0.184174	           -0.020526	           -0.473480	          133.439408	           19.576106	           -0.238905	            0.005555	           -0.679029	           -0.000554	            0.156254	            0.022923
            0.007000	            0.644810	          189.012152	          -21.019170	           -0.258026	            0.006214	           -0.404290	            0.000567	            0.166074	           -0.018468	           -0.705298	          132.703810	           19.057368	           -0.238960	            0.005558	           -0.680155	           -0.000934	            0.175737	            0.025237
            0.007500	            0.782964	          185.587131	          -21.034198	           -0.257857	            0.006215	           -0.404416	            0.000577	            0.136805	           -0.015505	           -0.598970	          129.205353	           19.044844	           -0.239127	            0.005553	           -0.678760	           -0.000734	            0.158440	            0.023354
            0.008000	            0.829298	          184.144621	          -20.948783	           -0.257836	            0.006213	           -0.404138	            0.000592	            0.131472	           -0.014957	           -0.454556	          128.101959	           18.759273	           -0.239626	            0.005558	           -0.680794	           -0.000560	            0.157838	            0.023114
            0.008500	            0.875943	          181.620321	          -20.822151	           -0.257196	            0.006212	           -0.403697	            0.000894	            0.185449	           -0.021261	           -0.866962	          125.522863	           18.609469	           -0.238138	            0.005560	           -0.679904	           -0.001144	            0.165656	            0.024559
            0.009000	            0.739576	          178.374529	          -20.606443	           -0.257335	            0.006211	           -0.403506	            0.000827	            0.199343	           -0.023029	           -0.627519	          124.051526	           18.322545	           -0.238453	            0.005561	           -0.680346	           -0.000588	            0.116149	            0.017155
            0.009500	            0.557902	          175.308011	          -20.160570	           -0.257620	            0.006214	           -0.404279	            0.000474	            0.149047	           -0.017141	           -0.712058	          121.474283	           17.984889	           -0.237897	            0.005562	           -0.680033	           -0.001112	            0.189627	            0.028075
            0.010000	            0.467051	          172.603418	          -20.034369	           -0.257149	            0.006215	           -0.404410	            0.000406	            0.150043	           -0.017416	           -0.659227	          119.817125	           17.978956	           -0.238054	            0.005561	           -0.680101	           -0.000677	            0.122973	            0.018453
            0.010500	            0.422208	          168.997506	          -19.912146	           -0.257112	            0.006219	           -0.405454	            0.000372	            0.148892	           -0.017543	           -0.649340	          117.055562	           17.781387	           -0.237585	            0.005565	           -0.680651	           -0.000837	            0.150974	            0.022934
            0.011000	            0.422420	          168.456512	          -19.868609	           -0.256407	            0.006211	           -0.403586	            0.000355	            0.141684	           -0.016711	           -0.783867	          115.397392	           17.869390	           -0.237814	            0.005559	           -0.679269	           -0.000952	            0.140135	            0.021700
            0.011500	            0.240453	          165.750919	          -19.512901	           -0.256317	            0.006209	           -0.403086	            0.000097	            0.067015	           -0.007889	           -0.873037	          114.109012	           17.583262	           -0.237734	            0.005564	           -0.680489	           -0.001201	            0.156979	            0.024189
            0.012000	            0.470161	          163.046978	          -19.525065	           -0.256400	            0.006211	           -0.403469	            0.000217	            0.075110	           -0.008995	           -0.862547	          111.163810	           17.244252	           -0.237855	            0.005557	           -0.678627	           -0.001076	            0.138704	            0.021516
            0.012500	            0.150096	          160.342341	          -19.398295	           -0.256380	            0.006214	           -0.404181	            0.000100	            0.107238	           -0.012974	           -0.906177	          110.243744	           17.006346	           -0.237898	            0.005566	           -0.681250	           -0.001116	            0.135788	            0.020947
            0.013000	            0.105070	          158.358624	          -19.223260	           -0.255709	            0.006208	           -0.402800	            0.000086	            0.128877	           -0.015644	           -0.757090	          107.851153	           16.763104	           -0.237653	            0.005564	           -0.680304	           -0.000843	            0.120062	            0.018661
            0.013500	            0.105839	          156.014580	          -19.095741	           -0.255182	            0.006211	           -0.403540	            0.000103	            0.152481	           -0.018663	           -0.940625	          106.746590	           16.477673	           -0.237084	            0.005568	           -0.680833	           -0.001569	            0.178064	            0.027486
            0.014000	            0.198849	          153.128971	          -18.787345	           -0.255978	            0.006212	           -0.403672	            0.000131	            0.100649	           -0.012349	           -0.886506	          104.721470	           16.376569	           -0.237075	            0.005568	           -0.680922	           -0.000892	            0.105328	            0.016471
            0.014500	            0.244955	          151.686854	          -18.793642	           -0.255338	            0.006209	           -0.403107	            0.000108	            0.067117	           -0.008316	           -1.024397	          103.984369	           16.374000	           -0.236595	            0.005573	           -0.681830	           -0.001226	            0.124417	            0.019591
            0.015000	            0.292301	          148.440508	          -18.440822	           -0.255191	            0.006210	           -0.403332	            0.000088	            0.044627	           -0.005544	           -0.920228	          101.039674	           15.988023	           -0.235820	            0.005569	           -0.680006	           -0.001310	            0.143851	            0.022762
            0.015500	            0.063155	          146.818466	          -18.538921	           -0.255462	            0.006208	           -0.402823	            0.000035	            0.082513	           -0.010419	           -0.820629	           99.383339	           15.794357	           -0.236369	            0.005574	           -0.681786	           -0.000764	            0.092485	            0.014698
            0.016000	           -0.210678	          144.473583	          -18.227296	           -0.254984	            0.006209	           -0.403050	           -0.000132	            0.090418	           -0.011407	           -0.954635	           97.542185	           15.553206	           -0.235785	            0.005575	           -0.681622	           -0.001581	            0.161548	            0.025759
            0.016500	            0.111073	          142.309670	          -18.053944	           -0.254765	            0.006210	           -0.403133	            0.000116	            0.148427	           -0.018830	           -1.088600	           95.700696	           15.405911	           -0.236553	            0.005568	           -0.680461	           -0.001212	            0.106583	            0.017158
            0.017000	           -0.025624	          140.866535	          -17.830507	           -0.254904	            0.006207	           -0.402582	           -0.000025	            0.134944	           -0.017081	           -1.038489	           94.780634	           15.261821	           -0.235285	            0.005579	           -0.682147	           -0.001704	            0.155535	            0.025045
            0.017500	           -0.162057	          137.981275	          -17.613254	           -0.254910	            0.006210	           -0.403148	           -0.000085	            0.072754	           -0.009287	           -1.080145	           93.308282	           14.975016	           -0.236237	            0.005574	           -0.681763	           -0.001078	            0.093162	            0.014952
            0.018000	           -0.069539	          136.538184	          -17.390385	           -0.254004	            0.006207	           -0.402443	           -0.000038	            0.074387	           -0.009474	           -1.117814	           90.731041	           14.684268	           -0.235584	            0.005578	           -0.682213	           -0.001593	            0.129302	            0.020927
